<svg width="168" height="99" viewBox="0 0 168 99" fill="none" xmlns="http://www.w3.org/2000/svg">
<path fill-rule="evenodd" clip-rule="evenodd" d="M59.8069 1.30962C61.9078 -0.214381 64.8216 1.46786 64.5522 4.04933L62.2783 25.8423L78.3055 33.5946C78.3542 33.563 78.4049 33.533 78.4575 33.5048L89.7557 27.445C91.5342 26.4911 93.4456 28.4725 92.4284 30.2156L87.1833 39.2032C87.1098 39.3293 87.0244 39.4445 86.9293 39.5482C86.8263 39.7998 86.6596 40.0326 86.4263 40.2227C79.866 45.5674 70.8037 46.6286 63.186 42.9439L52.5709 37.8094L37.3773 50.6235C35.3933 52.2968 32.3645 50.8318 32.4446 48.2375L33.0584 28.3713L12.6573 18.5033L2.23497 13.3627C-1.4633 11.5386 -0.316623 5.98934 3.80173 5.78045L14.8428 5.22043C17.6942 5.0758 20.5361 5.65165 23.1063 6.89486L40.5054 15.3107L59.8069 1.30962ZM166.261 98.3899C167.363 98.9603 168.312 97.4103 167.302 96.6883L96.5009 46.0576C94.7338 44.794 92.4217 44.5842 90.456 45.5092L87.6329 46.8377C83.1344 48.9547 83.0145 55.3104 87.4301 57.5954L166.261 98.3899Z" fill="#E50404"/>
</svg>
