<svg width="311" height="154" viewBox="0 0 311 154" fill="none" xmlns="http://www.w3.org/2000/svg">
<path fill-rule="evenodd" clip-rule="evenodd" d="M150.033 150.379C149.764 149.793 149.617 149.141 149.624 148.454L149.818 129.602V124.072H90.5008L90.7522 148.454C90.7778 150.939 88.7839 152.974 86.2988 153C86.0704 153.002 85.8458 152.987 85.6262 152.957C85.4066 152.987 85.182 153.002 84.9536 153C82.4685 152.974 80.4746 150.939 80.5002 148.454L80.7516 124.072H21.3771L21.6285 148.454C21.6541 150.939 19.6603 152.974 17.1751 153C14.69 153.025 12.6546 151.032 12.629 148.546L12.3767 124.072H4.5C2.01472 124.072 0 122.058 0 119.572C0 117.087 2.01472 115.072 4.5 115.072H12.2839L12.1822 105.206H4.5C2.01472 105.206 0 103.191 0 100.706C0 98.2208 2.01472 96.2061 4.5 96.2061H12.0894L12.0001 87.5464C11.9745 85.0612 13.9683 83.0259 16.4535 83.0002C18.9386 82.9746 20.974 84.9685 20.9996 87.4536L21.0899 96.2061H81.0389L81.126 87.7594L81.1238 87.5464C81.0981 85.0612 83.092 83.0259 85.5771 83.0002L85.6262 83L85.6753 83.0002C88.1604 83.0259 90.1543 85.0612 90.1286 87.5464L90.1264 87.759L90.2135 96.2062H149.818L149.818 16H140.503C136.6 16 133.735 12.3317 134.682 8.54479L135.682 4.54478C136.35 1.87378 138.75 0 141.503 0H154.318H165.134C167.887 0 170.287 1.87378 170.954 4.54479L171.954 8.54479C172.901 12.3317 170.037 16 166.134 16H158.818L158.818 84.9227C159.338 85.6651 159.639 86.5711 159.629 87.5464L159.539 96.2062H166.753H213.5H219.663L219.753 87.4536C219.778 84.9685 221.814 82.9746 224.299 83.0002C224.495 83.0023 224.687 83.0167 224.876 83.0429C225.065 83.0167 225.258 83.0023 225.454 83.0002C227.939 82.9746 229.974 84.9685 230 87.4536L230.09 96.2061L290.213 96.2062L290.124 87.5464C290.098 85.0612 292.092 83.0259 294.577 83.0002C297.062 82.9746 299.098 84.9685 299.123 87.4536L299.214 96.2061H306.124C308.609 96.2061 310.624 98.2208 310.624 100.706C310.624 103.191 308.609 105.206 306.124 105.206H299.306L299.408 115.072H306.124C308.609 115.072 310.624 117.087 310.624 119.572C310.624 122.058 308.609 124.072 306.124 124.072H299.501L299.752 148.454C299.778 150.939 297.784 152.974 295.299 153C292.814 153.025 290.778 151.032 290.753 148.546L290.5 124.072L230.377 124.072L230.629 148.454C230.654 150.939 228.66 152.974 226.175 153C225.724 153.004 225.288 152.943 224.876 152.823C224.464 152.943 224.028 153.004 223.577 153C221.092 152.974 219.098 150.939 219.124 148.454L219.375 124.072H213.5H166.753H159.252L159 148.546C158.993 149.164 158.863 149.751 158.632 150.285C158.079 152.144 156.357 153.5 154.318 153.5C152.314 153.5 150.616 152.19 150.033 150.379ZM213.5 115.072H219.468L219.57 105.206H213.5H166.753H159.447L159.345 115.072H166.753H213.5ZM236.253 105.206H230.183L230.284 115.072H236.253H290.408L290.306 105.206H236.253ZM149.818 105.206H90.3063L90.408 115.072H149.818L149.818 105.206ZM80.9461 105.206H21.1826L21.2844 115.072H80.8444L80.9461 105.206Z" fill="#E50404"/>
</svg>
