<?xml version="1.0" encoding="UTF-8"?>
<svg id="Layer_1" data-name="Layer 1" xmlns="http://www.w3.org/2000/svg" viewBox="0 0 24 24">
  <defs>
    <style>
      .cls-1 {
        fill: red;
        stroke-width: 0px;
      }
    </style>
  </defs>
  <path class="cls-1" d="m10.69,7.31c-1.86.44-3.64-.44-5.1-1.54-1.1-.83-2.5-2.82-4.01-2.7C-.09,3.21-.06,5.13.34,6.32c.54,1.61,1.79,2.85,3.01,3.99v-1.59c-.38.31-.78.2-1.14-.04-.81-.52-1.96.35-1.65,1.27.28.85.69,1.61,1.3,2.28.28.31.6.57.94.81.16.12.34.22.5.33.09.05.17.11.24.17.25.26.54.16.86-.31-.96-.57-2.13.57-1.54,1.54,1.13,1.84,3.07,2.62,5.04,3.26l-.5-1.88c-1.62,1.71-4.01,2.09-6.25,2.36-1.05.13-1.6,1.47-.57,2.1,2.37,1.43,5.22,1.53,7.91,1.63s5.39-.4,7.58-2.27c1.89-1.62,3.62-3.95,4.83-6.11.65-1.16.98-2.35,1.17-3.66.21-1.39.51-2.66,1.58-3.65.7-.65.17-1.97-.8-1.92-.58.03-1.17.02-1.75.05l.97,1.69c.42-.8.91-1.44,1.56-2.06.77-.72-.03-2.33-1.09-1.88-1.5.63-2.92-.13-4.4-.45-1.36-.3-2.75-.25-4.06.26-2.52.98-4.05,3.33-4.23,5.98-.1,1.45,2.15,1.44,2.25,0,.15-2.29,1.99-4.15,4.32-4.19s4.35,1.57,6.72.58l-1.09-1.88c-.78.73-1.42,1.56-1.91,2.51-.37.71.08,1.74.97,1.69.58-.03,1.17-.02,1.75-.05l-.8-1.92c-.78.72-1.32,1.58-1.68,2.58-.41,1.14-.43,2.34-.73,3.51-.58,2.25-2.42,4.42-3.94,6.12-1.83,2.05-3.88,2.88-6.62,2.84-2.45-.03-5.21-.04-7.37-1.34l-.57,2.1c2.84-.35,5.78-.85,7.84-3.02.6-.63.31-1.62-.5-1.88-1.37-.45-2.9-.93-3.7-2.23l-1.54,1.54c1.45.86,3.06-.56,2.59-2.13-.24-.81-.89-1.25-1.55-1.7-.75-.52-1.28-1.12-1.58-2.01l-1.65,1.27c1.28.82,2.72.62,3.87-.32.46-.38.41-1.21,0-1.59-.92-.86-1.98-1.78-2.43-2.99-.08-.22-.14-.45-.18-.68l-.7.3c0,.08.78.69.85.75.51.45,1.02.89,1.56,1.31,2.09,1.63,4.57,2.72,7.24,2.08,1.41-.33.81-2.5-.6-2.17h0Z"/>
</svg>