<?xml version="1.0" encoding="UTF-8"?>
<svg id="Layer_1" data-name="Layer 1" xmlns="http://www.w3.org/2000/svg" viewBox="0 0 24 24">
  <defs>
    <style>
      .cls-1 {
        fill: red;
        stroke-width: 0px;
      }
    </style>
  </defs>
  <path class="cls-1" d="m1.05,21.13c3.28,1.01,6.77,1.68,10.17.86,3.12-.76,5.27-2.84,7.33-5.18.98-1.12,1.98-2.29,2.63-3.64.35-.72.59-1.46.73-2.25.12-.71.17-1.39.55-2.02.64-1.1,1.96-2.22,1.22-3.62-.61-1.17-2.15-1.09-2.85-.1-.63.91.63,2.18,1.54,1.54,1.07-.76,1.73-1.9,1.56-3.24-.1-.8-.89-1.46-1.69-.97-.51.31-.93.65-1.44.21-.34-.3-.62-.61-1.03-.82-.81-.41-1.75-.47-2.63-.42-1.83.1-3.91.36-5.06,1.96-.54.75-.76,1.63-1.01,2.51-.19.66-.17.98-.88.73-.59-.2-1.17-.5-1.74-.75-2.22-.95-4.44-1.91-6.66-2.86-1.01-.43-2.09.47-1.54,1.54.42.82.8,1.66,1.16,2.5.15.35.3.71.46,1.06.14.3.64.99.62,1.31l.33-.8-.15.12.8-.33c.21.11.18.07-.1-.12-.17-.11-.35-.2-.54-.27-.37-.1-.76-.05-1.1.11-.66.3-1.09,1-1.09,1.73,0,.89.62,1.57,1.14,2.22.68.85,1.36,1.7,2.04,2.54l.23-1.77c-.3.23-.49.34-.87.25-.88-.22-1.87.81-1.27,1.65,1.49,2.09,3.62,3.54,6.16,4.02l-.27-2.06c-1.85,1.12-3.89,1.51-6.03,1.22-1.43-.19-1.42,2.06,0,2.25,2.5.33,5.01-.23,7.17-1.53.77-.47.72-1.87-.27-2.06-1.94-.37-3.66-1.37-4.81-2.99l-1.27,1.65c.93.23,1.84.12,2.61-.47.62-.47.72-1.15.23-1.77-.43-.53-.85-1.06-1.28-1.59-.26-.32-.52-.63-.77-.95-.08-.1-.34-.57-.45-.61-.68.12-.87.28-.55.47.11.1.24.17.38.2.17.07.32.11.5.12.48.03.95-.19,1.24-.58.7-.93-.22-2.1-.61-2.95-.57-1.25-1.08-2.52-1.71-3.74l-1.54,1.54c2.47,1.06,4.94,2.12,7.4,3.19.99.43,2.12,1.13,3.24.84,1-.25,1.49-1.1,1.79-2.02s.39-2.2,1.35-2.75c.89-.51,2.18-.56,3.18-.55.6,0,1.04.09,1.49.5.36.33.63.65,1.09.84,1.1.47,2.21-.01,3.17-.6l-1.69-.97c.06.51.01.98-.44,1.3l1.54,1.54-1.14-.2c-.06.15-.14.28-.23.41-.15.24-.33.46-.5.69-.3.41-.57.82-.76,1.29-.41,1.02-.35,2.14-.75,3.17-.79,2.06-2.59,3.85-4.12,5.4-1.65,1.67-3.6,2.73-5.95,2.99-2.61.29-5.19-.32-7.67-1.09-1.39-.43-1.98,1.74-.6,2.17h0Z"/>
</svg>