<?xml version="1.0" encoding="UTF-8"?><svg id="a" xmlns="http://www.w3.org/2000/svg" viewBox="0 0 841.89 841.89"><path d="M179.07,382.46l59.71,62.16c1.36,1.41,3.23,2.21,5.19,2.21h0c3.97,0,7.19-3.22,7.19-7.19v-52.19c0-3.97,3.22-7.19,7.19-7.19h4.19c3.97,0,7.19,3.22,7.19,7.19v67.01c0,9.01-32.48,12.25-39.74,4.98l-59.71-62.16c-1.36-1.41-3.23-2.21-5.19-2.21h0c-3.97,0-7.19,3.22-7.19,7.19v52.19c0,3.97-3.22,7.19-7.19,7.19h-4.31c-3.97,0-7.19-3.22-7.19-7.19v-67.01c0-12.63,35.18-9.66,39.86-4.98Z"/><path d="M345.79,380.25h0c4.69,0,8.49,3.8,8.49,8.49v36.88c0,8.44-1.52,15.47-4.56,21.09-3.04,5.62-7.31,9.82-12.82,12.6-5.51,2.77-11.91,4.16-19.21,4.16s-13.7-1.39-19.21-4.16c-5.51-2.77-9.82-6.97-12.94-12.6-3.12-5.62-4.67-12.65-4.67-21.09v-36.88c0-4.69,3.8-8.49,8.49-8.49h.23c4.69,0,8.49,3.8,8.49,8.49v36.88c0,5.32,.87,9.67,2.62,13.05s4.1,5.87,7.07,7.47,6.27,2.39,9.92,2.39,6.84-.8,9.8-2.39c2.96-1.6,5.34-4.09,7.12-7.47,1.79-3.38,2.68-7.73,2.68-13.05v-36.88c0-4.69,3.8-8.49,8.49-8.49Z"/><path d="M368.77,404.19c2.24-5.17,5.38-9.67,9.4-13.51,4.03-3.84,8.72-6.84,14.08-9.01,5.36-2.17,11.15-3.25,17.38-3.25s12.14,1.08,17.5,3.25c5.36,2.17,10.05,5.17,14.08,9.01,4.03,3.84,7.16,8.34,9.4,13.51,2.24,5.17,3.36,10.76,3.36,16.76s-1.12,11.59-3.36,16.76c-2.24,5.17-5.38,9.67-9.4,13.51-4.03,3.84-8.72,6.84-14.08,9.01-5.36,2.17-11.19,3.25-17.5,3.25s-12.03-1.08-17.38-3.25c-5.36-2.17-10.05-5.17-14.08-9.01-4.03-3.84-7.16-8.34-9.4-13.51-2.24-5.17-3.36-10.75-3.36-16.76s1.12-11.59,3.36-16.76Zm17.96,30.89c2.36,4.1,5.53,7.32,9.52,9.63,3.99,2.32,8.45,3.48,13.39,3.48s9.52-1.16,13.51-3.48c3.99-2.32,7.16-5.53,9.52-9.63s3.54-8.81,3.54-14.14-1.18-10.03-3.54-14.13c-2.36-4.11-5.53-7.31-9.52-9.63-3.99-2.32-8.49-3.48-13.51-3.48s-9.41,1.16-13.39,3.48c-3.99,2.32-7.16,5.53-9.52,9.63-2.36,4.1-3.54,8.82-3.54,14.13s1.18,10.03,3.54,14.14Z"/><path d="M459.55,451.9v-.84c0-3.35,1.98-6.38,5.05-7.73l34.34-15.07c6.72-2.95,6.73-12.49,.01-15.45l-34.37-15.15c-3.06-1.35-5.03-4.38-5.03-7.72h0c0-6.19,6.45-10.28,12.05-7.63l64.62,30.59c2.95,1.4,4.83,4.37,4.83,7.63v1.05c0,3.27-1.89,6.25-4.85,7.64l-64.62,30.32c-5.6,2.63-12.02-1.46-12.02-7.64Z"/><path d="M699.26,437.25c-2.28,5.02-5.53,9.41-9.75,13.17-4.22,3.76-9.25,6.69-15.11,8.78-5.85,2.09-12.35,3.13-19.49,3.13h-60.53c-7.14,0-13.64-1.04-19.49-3.13-5.85-2.09-10.89-5.02-15.11-8.78-4.22-3.76-7.47-8.15-9.75-13.17-2.28-5.02-3.42-10.45-3.42-16.3s1.14-11.29,3.42-16.3c2.28-5.02,5.53-9.4,9.75-13.17,4.22-3.76,9.25-6.69,15.11-8.78,5.85-2.09,12.35-3.13,19.49-3.13h60.53c7.14,0,13.64,1.04,19.49,3.13,5.85,2.09,10.89,5.02,15.11,8.78,4.22,3.76,7.47,8.15,9.75,13.17,2.28,5.02,3.42,10.45,3.42,16.3s-1.14,11.29-3.42,16.3Zm-19.21-29.53c-2.39-3.88-5.78-6.92-10.15-9.12-4.37-2.21-9.56-3.3-15.56-3.3h-59.39c-6,0-11.19,1.1-15.56,3.3-4.37,2.21-7.75,5.24-10.15,9.12-2.39,3.88-3.59,8.28-3.59,13.22s1.2,9.35,3.59,13.22c2.39,3.88,5.78,6.92,10.15,9.12,4.37,2.2,9.56,3.3,15.56,3.3h59.39c6,0,11.19-1.1,15.56-3.3,4.37-2.21,7.75-5.24,10.15-9.12,2.39-3.88,3.59-8.28,3.59-13.22s-1.2-9.35-3.59-13.22Z"/></svg>