<svg width="929" height="255" viewBox="0 0 929 255" fill="none" xmlns="http://www.w3.org/2000/svg">
<path fill-rule="evenodd" clip-rule="evenodd" d="M420.099 75.95C493.511 11.6846 583.192 5.88436 671.19 32.1981C759.388 58.5717 844.971 117.041 908.013 179.588C911.346 182.895 916.728 182.874 920.034 179.541C923.34 176.209 923.319 170.827 919.987 167.52C855.529 103.568 767.612 43.2872 676.06 15.9107C584.308 -11.5255 487.989 -6.07566 408.901 63.1588C367.504 99.3988 321.077 121.978 277.873 130.745C234.561 139.534 195.217 134.333 167.12 116.14C132.232 93.5481 95.2664 106.465 66.3577 125.803C37.2557 145.27 13.453 172.995 2.54136 185.749C-0.51053 189.316 -0.0929356 194.681 3.47408 197.733C7.04109 200.785 12.4068 200.368 15.4587 196.801C26.4371 183.969 48.8844 157.944 75.8098 139.933C102.929 121.792 131.768 113.501 157.88 130.409C190.783 151.716 235.024 156.786 281.254 147.406C327.592 138.003 376.665 113.972 420.099 75.95ZM426.099 130.95C499.511 66.6846 589.192 60.8844 677.19 87.1981C765.388 113.572 850.971 172.041 914.013 234.588C917.346 237.895 922.728 237.874 926.034 234.541C929.34 231.209 929.319 225.827 925.987 222.52C861.529 158.568 773.612 98.2872 682.06 70.9107C590.308 43.4745 493.989 48.9243 414.901 118.159C373.504 154.399 327.077 176.978 283.873 185.745C240.561 194.534 201.217 189.333 173.12 171.14C138.232 148.548 101.266 161.465 72.3577 180.803C43.2557 200.27 19.453 227.995 8.54136 240.749C5.48947 244.316 5.90706 249.681 9.47408 252.733C13.0411 255.785 18.4068 255.368 21.4587 251.801C32.4371 238.969 54.8844 212.944 81.8098 194.933C108.929 176.792 137.768 168.501 163.88 185.409C196.783 206.716 241.024 211.786 287.254 202.406C333.592 193.003 382.665 168.972 426.099 130.95Z" fill="#FF0000"/>
</svg>
