<svg width="1176" height="413" viewBox="0 0 1176 413" fill="none" xmlns="http://www.w3.org/2000/svg">
<path fill-rule="evenodd" clip-rule="evenodd" d="M1176 0H0V413H1176V0ZM585 30C529.771 30 485 74.7715 485 130V344C485 362.226 499.775 377 518 377H658C676.225 377 691 362.226 691 344V130C691 74.7715 646.229 30 591 30H585Z" fill="#FFFDF5"/>
<path d="M585 34.5H591C643.743 34.5 686.5 77.2568 686.5 130V344C686.5 359.74 673.74 372.5 658 372.5H518C502.26 372.5 489.5 359.74 489.5 344V130C489.5 77.2568 532.257 34.5 585 34.5Z" stroke="#E50404" stroke-width="9"/>
</svg>
