<svg width="1376" height="413" viewBox="0 0 1376 413" fill="none" xmlns="http://www.w3.org/2000/svg">
<path fill-rule="evenodd" clip-rule="evenodd" d="M1376 0H0V413H1376V0ZM685 30C629.772 30 585 74.7715 585 130V344C585 362.225 599.775 377 618 377H758C776.225 377 791 362.225 791 344V130C791 74.7715 746.228 30 691 30H685Z" fill="#FFFDF5"/>
<path d="M685 34.5H691C743.743 34.5 786.5 77.2568 786.5 130V344C786.5 359.74 773.74 372.5 758 372.5H618C602.26 372.5 589.5 359.74 589.5 344V130C589.5 77.2568 632.257 34.5 685 34.5Z" stroke="#E50404" stroke-width="9"/>
</svg>
