<?xml version="1.0" encoding="UTF-8"?>
<svg id="Layer_1" data-name="Layer 1" xmlns="http://www.w3.org/2000/svg" viewBox="0 0 24 24">
  <defs>
    <style>
      .cls-1 {
        fill: red;
        stroke-width: 0px;
      }
    </style>
  </defs>
  <path class="cls-1" d="m11.69,6.17c-1.35-.07-2.6.15-3.52,1.22-.86,1.01-1.51,2.29-1.9,3.56-.21.68-.3,1.41-.15,2.11.14.66.5,1.24.88,1.79.78,1.12,1.62,2.02,2.99,2.36,1.22.31,2.61.5,3.86.35,1.39-.17,2.53-.88,3.33-2.02s1.11-2.5,1.13-3.82-.49-2.57-1.45-3.52c-2.17-2.14-5.46-2.53-8.15-1.19-.54.27-.7,1.04-.4,1.54.32.55.99.68,1.54.4,1.56-.78,3.41-.62,4.85.36.61.42,1.18,1.01,1.32,1.76.16.83-.03,1.84-.36,2.61-.28.65-.77,1.25-1.45,1.51-.83.32-1.81.16-2.67.03s-1.61-.26-2.2-.95c-.48-.57-1.15-1.38-1.05-2.18.13-.97.7-1.97,1.23-2.77.2-.31.44-.67.8-.82.41-.17.93-.1,1.36-.08.61.03,1.12-.54,1.12-1.12,0-.64-.52-1.09-1.12-1.12h0Z"/>
  <path class="cls-1" d="m18.94,4.95v-.02c.05.08.1.15.16.23-.02-.03-.04-.07-.06-.1l.11.27s-.03-.09-.04-.13l.04.3s0-.08,0-.12l-.04.3s.01-.08.03-.11l-.11.27s.03-.07.06-.1l-.18.23s.05-.05.08-.08l-.23.18s.06-.04.1-.05l-.27.11s.07-.02.11-.03l-.3.04s.07,0,.11,0l-.3-.04s.06.01.09.03l-.27-.11s.05.03.08.05l-.23-.18s.05.04.07.06l-.18-.23s.04.06.06.09l-.11-.27s.02.06.03.09l-.04-.3s0,.06,0,.09l.04-.3s-.02.08-.03.11l.11-.27c-.05.11-.13.19-.19.29-.1.17-.16.37-.23.55l.11-.27s-.04.08-.06.11l.18-.23s-.04.04-.06.06l.23-.18s-.03.02-.05.03l.27-.11s-.05.02-.08.02l.3-.04s-.06,0-.08,0l.3.04c-.05,0-.1-.02-.15-.04l.27.11c-.09-.04-.18-.1-.26-.16l.23.18c-.06-.05-.11-.1-.16-.15l.18.23s-.05-.07-.07-.11l.11.27s-.03-.1-.04-.15l.04.3s0-.07,0-.11l-.04.3s.02-.06.03-.09l-.11.27s.03-.05.05-.08l-.18.23s.06-.06.09-.09l-.23.18s.09-.06.15-.08l-.27.11c.07-.03.13-.04.2-.06l-.3.04c.08-.01.17-.01.25,0l-.3-.04c.08.01.15.03.22.06l-.27-.11c.06.03.11.06.16.09l-.23-.18s.07.07.11.11l-.18-.23s.05.07.07.12l-.11-.27s.03.09.04.14l-.04-.3c0,.05,0,.11,0,.16l.04-.3s-.02.1-.04.14l.11-.27s-.04.08-.06.11l.18-.23s-.05.06-.08.08l.23-.18s-.05.04-.08.05c-.13.07-.24.17-.32.29-.1.11-.17.24-.2.38-.05.15-.05.3-.02.45,0,.15.05.29.13.42.15.24.39.45.67.52l.3.04c.2,0,.39-.05.57-.15.14-.07.27-.17.37-.28.2-.22.27-.36.37-.63.06-.15.07-.32.08-.47,0-.03,0-.07,0-.1-.01-.13-.02-.26-.05-.38-.07-.3-.26-.62-.5-.81-.08-.07-.2-.17-.31-.23s-.25-.11-.35-.16c-.07-.03-.14-.05-.22-.06-.16-.02-.34-.06-.51-.04s-.35.03-.5.09-.32.11-.45.21c-.22.16-.39.3-.52.54s-.2.49-.2.76c0,.28.08.53.21.78.16.31.45.56.75.74.48.29,1.1.37,1.6.09.22-.12.42-.33.54-.55.08-.16.14-.33.21-.5l-.11.27c.03-.08.08-.15.13-.23.1-.15.18-.31.23-.48,0-.02.01-.04.02-.06.02-.1.04-.23.04-.34,0-.14-.02-.28-.05-.41,0-.02-.01-.03-.02-.05-.04-.1-.08-.21-.13-.3,0-.02-.02-.03-.03-.05-.06-.09-.13-.19-.21-.27-.01-.01-.03-.03-.04-.04-.08-.07-.17-.14-.26-.2-.02,0-.03-.02-.05-.03-.1-.05-.21-.1-.31-.13s-.23-.04-.34-.05c-.02,0-.04,0-.06,0s-.04,0-.06,0c-.11.01-.23.02-.34.05-.02,0-.04.01-.06.02-.1.04-.21.08-.3.13-.02,0-.03.02-.05.03-.09.06-.18.13-.26.2-.2.17-.32.42-.41.66,0,.02-.01.04-.02.07-.02.12-.04.24-.05.36,0,.02,0,.05,0,.07,0,.11.02.24.05.35.03.13.09.26.15.38.06.13.16.24.25.35.1.11.22.19.36.23.13.07.28.1.43.1.15,0,.3-.03.43-.1.14-.05.26-.12.36-.23.2-.21.34-.5.33-.8l-.04-.3c-.05-.19-.15-.36-.29-.5h0Z"/>
  <path class="cls-1" d="m16.46,21.25c-2.39.27-4.78.37-7.18.26-2.12-.09-4.83,0-5.9-2.22-1.01-2.08-.57-4.84-.53-7.08s-.23-4.6.35-6.69c.63-2.25,2.9-2.77,4.97-2.81,2.43-.05,4.88.08,7.31.13,1.93.04,4.52-.32,5.54,1.73s.31,4.52.2,6.6c-.14,2.67.15,5.28.18,7.94.02,1.34-.88,1.8-2.12,1.93s-2.42.04-3.62.37c-1.39.38-.8,2.55.6,2.17,2.28-.63,5.18.21,6.77-2.07.74-1.06.63-2.26.54-3.48-.12-1.54-.18-3.09-.16-4.63.01-1.41.09-2.81.21-4.21s.24-2.93-.12-4.35c-.63-2.49-2.52-3.9-5.02-4.14-2.91-.28-5.91-.17-8.83-.22-2.5-.05-5.26.04-7.16,1.9S.68,6.8.64,9.16c-.02,1.49-.05,2.99-.07,4.48-.03,1.58-.12,3.17.17,4.73.54,2.96,2.58,4.75,5.52,5.15,3.36.46,6.83.36,10.2-.02,1.42-.16,1.44-2.41,0-2.25h0Z"/>
</svg>