<svg width="390" height="150" viewBox="0 0 390 150" fill="none" xmlns="http://www.w3.org/2000/svg">
<path fill-rule="evenodd" clip-rule="evenodd" d="M92.9956 28.855C93.1565 27.7012 93.2397 26.5225 93.2397 25.3243C93.2397 11.3381 81.9016 0 67.9154 0C60.7561 0 54.2907 2.97083 49.6847 7.74697C46.3272 6.10294 42.5524 5.18002 38.562 5.18002C24.5758 5.18002 13.2377 16.5181 13.2377 30.5044C13.2377 30.5667 13.2379 30.629 13.2384 30.6912C5.35228 34.9821 0 43.3415 0 52.951C0 66.9372 11.3381 78.2753 25.3243 78.2753C27.8534 78.2753 30.2959 77.9046 32.6004 77.2145C36.4565 81.4461 41.5963 84.4873 47.4042 85.7223L47.4042 140.435C47.4042 145.406 51.4336 149.435 56.4042 149.435C61.3747 149.435 65.4042 145.406 65.4042 140.435V83.5496C69.0756 81.769 72.298 79.2076 74.8555 76.0812C78.0092 77.4913 81.504 78.2753 85.182 78.2753C99.1682 78.2753 110.506 66.9372 110.506 52.951C110.506 41.6914 103.158 32.148 92.9956 28.855ZM310.135 30.0587C313.94 21.2023 322.742 15 332.993 15C343.653 15 352.746 21.708 356.282 31.1332C358.894 30.2011 361.708 29.6936 364.64 29.6936C378.373 29.6936 389.506 40.8265 389.506 54.5596C389.506 66.0303 381.739 75.687 371.178 78.5574C367.797 88.2751 358.556 95.2494 347.686 95.2494C346.91 95.2494 346.142 95.2138 345.383 95.1442V140.46C345.383 145.431 341.354 149.46 336.383 149.46C331.413 149.46 327.383 145.431 327.383 140.46V92.0409C325.215 92.6584 322.926 92.9889 320.56 92.9889C310.366 92.9889 301.604 86.8548 297.766 78.0764C288.01 74.7166 281 65.4567 281 54.5596C281 40.8265 292.133 29.6936 305.866 29.6936C307.322 29.6936 308.748 29.8187 310.135 30.0587Z" fill="#E50404"/>
</svg>
