<svg width="353" height="150" viewBox="0 0 353 150" fill="none" xmlns="http://www.w3.org/2000/svg">
<path fill-rule="evenodd" clip-rule="evenodd" d="M92.9956 28.855C93.1565 27.7012 93.2397 26.5225 93.2397 25.3243C93.2397 11.3381 81.9016 0 67.9154 0C60.7561 0 54.2907 2.97083 49.6847 7.74697C46.3272 6.10294 42.5524 5.18002 38.562 5.18002C24.5758 5.18002 13.2377 16.5181 13.2377 30.5044C13.2377 30.5368 13.2377 30.5693 13.2379 30.6017C13.238 30.6316 13.2381 30.6614 13.2384 30.6912C5.35228 34.9821 0 43.3415 0 52.951C0 66.9372 11.3381 78.2753 25.3243 78.2753C27.8534 78.2753 30.2959 77.9046 32.6004 77.2145C36.4565 81.4461 41.5963 84.4873 47.4042 85.7223L47.4042 140.435C47.4042 145.406 51.4336 149.435 56.4042 149.435C61.3747 149.435 65.4042 145.406 65.4042 140.435V83.5496C69.0756 81.769 72.298 79.2076 74.8555 76.0812C78.0092 77.4913 81.504 78.2753 85.182 78.2753C99.1682 78.2753 110.506 66.9372 110.506 52.951C110.506 41.6914 103.158 32.148 92.9956 28.855ZM273.135 30.0587C276.94 21.2023 285.742 15 295.993 15C306.653 15 315.746 21.708 319.282 31.1332C321.894 30.2011 324.708 29.6936 327.64 29.6936C341.373 29.6936 352.506 40.8265 352.506 54.5596C352.506 66.0303 344.739 75.687 334.178 78.5574C330.797 88.2751 321.556 95.2494 310.686 95.2494C309.91 95.2494 309.142 95.2138 308.383 95.1442V140.46C308.383 145.431 304.354 149.46 299.383 149.46C294.413 149.46 290.383 145.431 290.383 140.46V92.0409C288.215 92.6584 285.926 92.9889 283.56 92.9889C273.366 92.9889 264.604 86.8548 260.766 78.0764C251.01 74.7166 244 65.4567 244 54.5596C244 40.8265 255.133 29.6936 268.866 29.6936C270.322 29.6936 271.748 29.8187 273.135 30.0587Z" 
fill="#E50404"/>
</svg>
