<svg width="1177" height="347" viewBox="0 0 1177 347" fill="none" xmlns="http://www.w3.org/2000/svg">
<path fill-rule="evenodd" clip-rule="evenodd" d="M591.5 0H0.5V347H524.5C506.275 347 491.5 332.225 491.5 314V100C491.5 44.7715 536.272 0 591.5 0ZM597.5 0C652.728 0 697.5 44.7715 697.5 100V314C697.5 332.225 682.725 347 664.5 347H1176.5V0H597.5Z" fill="#FFFDF5"/>
<path d="M591.5 4.5H597.5C650.243 4.5 693 47.2568 693 100V314C693 329.74 680.24 342.5 664.5 342.5H524.5C508.76 342.5 496 329.74 496 314V100C496 47.2568 538.757 4.5 591.5 4.5Z" stroke="#E50404" stroke-width="9"/>
</svg>
