<svg width="154" height="187" viewBox="0 0 154 187" fill="none" xmlns="http://www.w3.org/2000/svg">
<path fill-rule="evenodd" clip-rule="evenodd" d="M118.339 21.1134C114.191 21.1134 110.21 21.8315 106.515 23.15C101.513 9.81704 88.6497 0.32782 73.5699 0.32782C59.0696 0.32782 46.6185 9.10159 41.2359 21.6299C39.2736 21.2904 37.2557 21.1134 35.1964 21.1134C15.7694 21.1134 0.020752 36.8621 0.020752 56.2891C0.020752 71.7042 9.93653 84.8034 23.7377 89.5562C29.168 101.974 41.5617 110.651 55.982 110.651C60.7208 110.651 65.2407 109.714 69.3665 108.015L69.3665 177.805C69.3665 182.776 73.396 186.805 78.3665 186.805C83.3371 186.805 87.3665 182.776 87.3665 177.805L87.3665 113.155C89.6253 113.61 91.9625 113.849 94.3555 113.849C109.732 113.849 122.804 103.983 127.586 90.2365C142.527 86.1761 153.515 72.5157 153.515 56.2891C153.515 36.8621 137.766 21.1134 118.339 21.1134Z" fill="#E50404"/>
</svg>
