<svg width="122" height="170" viewBox="0 0 122 170" fill="none" xmlns="http://www.w3.org/2000/svg">
<path fill-rule="evenodd" clip-rule="evenodd" d="M16.9839 31.4451C18.8469 13.7719 33.7972 0 51.964 0C66.7267 0 79.3653 9.09416 84.5832 21.9859C84.9124 22.3816 85.2339 22.7839 85.5474 23.1927C85.811 23.1869 86.0753 23.184 86.3402 23.184C105.767 23.184 121.516 38.9326 121.516 58.3596C121.516 77.7866 105.767 93.5353 86.3402 93.5353C79.6868 93.5353 73.4647 91.688 68.1591 88.4783L68.1591 160.689C68.1591 165.659 64.1296 169.689 59.1591 169.689C54.1885 169.689 50.1591 165.659 50.1591 160.689L50.1591 93.3915C45.6134 95.5348 40.5345 96.7331 35.1757 96.7331C15.7487 96.7331 0 80.9844 0 61.5574C0 48.7883 6.8038 37.6084 16.9839 31.4451Z" fill="#E50404"/>
</svg>
