<svg width="154" height="205" viewBox="0 0 154 205" fill="none" xmlns="http://www.w3.org/2000/svg">
<path fill-rule="evenodd" clip-rule="evenodd" d="M129.51 35.1757C129.51 36.8398 129.395 38.477 129.171 40.0797C143.287 44.6537 153.494 57.9094 153.494 73.5491C153.494 92.9761 137.745 108.725 118.318 108.725C113.21 108.725 108.355 107.636 103.975 105.677C99.6303 110.988 93.9045 115.125 87.3458 117.54L87.3458 195.065C87.3458 200.036 83.3163 204.065 78.3458 204.065C73.3752 204.065 69.3458 200.036 69.3458 195.065L69.3458 119.647C59.8474 118.523 51.4011 113.966 45.2821 107.251C42.0811 108.21 38.6885 108.725 35.1757 108.725C15.7487 108.725 0 92.9761 0 73.5491C0 60.2014 7.43437 48.5902 18.3882 42.6302C18.3876 42.5437 18.3873 42.4572 18.3873 42.3707C18.3873 22.9437 34.136 7.19502 53.5629 7.19502C59.1055 7.19502 64.3487 8.47695 69.0122 10.7605C75.41 4.12646 84.3905 0 94.3347 0C113.762 0 129.51 15.7487 129.51 35.1757Z" fill="#E50404"/>
</svg>
